<svg id="svg" version="1.1" viewBox="0 0 300 300" width="300" height="300" xmlns="http://www.w3.org/2000/svg"><svg xmlns="http://www.w3.org/2000/svg"><defs><clipPath id="clip-1"><rect x="0" y="0" transform="scale(0.23438,0.23438)" width="1280" height="1280" fill="none"/></clipPath></defs><g clip-path="url(#clip-1)" fill="none" fill-rule="nonzero" stroke="none" stroke-width="1" stroke-linecap="butt" stroke-linejoin="miter" stroke-miterlimit="10" stroke-dasharray="" stroke-dashoffset="0" font-family="none" font-weight="none" font-size="none" text-anchor="none" style="mix-blend-mode: normal"><path d="M121.59914,87.15633l56.98289,0.0007l-0.07523,0.73289c-0.26344,2.39016 -0.16805,5.68102 -0.17086,8.15063c-3.05813,0.11227 -6.11484,0.255 -9.16992,0.4282c0.00422,0.38977 0.04969,2.74594 0.13008,3.03023c2.14008,7.56797 13.33664,14.05969 19.22906,18.58594c4.40273,3.38203 8.71125,6.11789 12.67031,9.27633c10.54523,8.41266 18.88219,16.51922 20.4,30.49055c0.72656,6.68766 0.20695,11.24203 -0.72727,17.82586c-3.30352,23.28023 -12.23344,44.95523 -21.37734,66.42469c-2.90156,6.81328 -6.14531,13.50703 -8.71055,20.41406c-1.15406,3.11484 -2.19352,6.26953 -3.11672,9.45938c-0.79781,2.79844 -1.44563,5.73281 -2.11406,8.56875c-1.16953,4.96406 -2.91469,7.08281 -8.04539,7.71094c-15.21516,0.53203 -30.18937,1.06641 -45.42258,0.39844c-3.26836,-0.14297 -6.59742,-0.13828 -9.85125,-0.44062c-2.15648,-0.19922 -4.08562,-0.76406 -5.49398,-2.48672c-2.50336,-3.06328 -4.99992,-16.47188 -6.84,-21.34922c-3.02156,-8.01328 -6.59109,-15.81563 -9.96867,-23.68125c-8.74148,-20.355 -17.28727,-41.28727 -20.61445,-63.31289c-0.93891,-6.21398 -1.71234,-12.42398 -1.13438,-18.71906c2.24344,-24.43852 28.45125,-35.46891 45.1793,-49.49742c2.78648,-2.33672 7.31461,-6.44812 7.50797,-10.26187c0.03492,-0.68953 -0.1657,-1.39617 -0.67008,-1.88531c-1.27758,-1.23844 -6.68344,-0.88617 -8.51555,-0.92039c-0.1868,-2.44125 -0.08906,-6.39117 -0.08133,-8.94281zM162.47555,262.97109c21.14297,-20.25938 42.84234,-69.50297 43.51687,-99.32953c0.65391,-11.42672 -5.11547,-21.76781 -12.8618,-29.76398c-8.40633,-8.67727 -17.90133,-16.40742 -27.21914,-24.09281c-1.18359,-0.97641 -5.42484,-5.00742 -6.40641,-5.51039c0.02367,0.05719 0.04594,0.11484 0.07078,0.17133c0.87094,1.97438 2.73234,3.84 4.08094,5.52633c4.11234,5.14219 8.25164,10.07555 12.75516,14.88703c6.75117,7.21242 13.90078,14.99039 17.73844,24.21844c7.2893,17.52773 -1.0432,48.3007 -7.38422,65.45766c-4.62445,12.51234 -10.35844,25.19766 -17.63695,36.40313c-2.17219,3.34453 -4.33359,6.74297 -6.67055,9.97266c-1.68398,2.32969 -3.86789,4.64766 -5.14477,7.21172c1.66711,-1.63594 3.57234,-3.45469 5.16164,-5.15156zM137.98242,263.54297c1.5668,1.54922 3.13875,3.13359 4.7768,4.60078l-0.05859,-0.11719c-1.27031,-2.53594 -3.46734,-4.71797 -5.11523,-7.05703c-17.34773,-24.63047 -29.31773,-53.5275 -33.90375,-83.32992c-0.95719,-6.21984 -1.0875,-19.8818 0.77367,-25.4318c5.52633,-16.48078 21.17625,-27.88617 31.29211,-41.4757c0.95648,-1.28367 4.03078,-4.91578 4.49203,-6.05906l-0.13898,-0.12047c-1.57992,1.00453 -3.22523,3.00984 -4.66805,4.30898c-0.98602,0.88828 -1.89539,1.5832 -2.9257,2.40867c-4.95164,3.96492 -9.795,8.06297 -14.52516,12.28992c-18.93539,16.69898 -27.75914,26.70727 -22.68211,52.94695c4.84945,25.06359 14.13328,47.14594 27.89484,68.55773c4.22062,6.69609 9.18117,12.89297 14.78812,18.47813z" fill="currentColor"/><path d="M198.66867,26.57414c1.07039,-0.2018 6.11344,-0.09422 7.49367,-0.08016c-3.79383,15.17063 -11.73539,27.90563 -26.13094,35.00273c-5.92125,2.91937 -12.51188,4.93922 -19.13133,5.22094l-8.40492,0.04688c2.87648,-8.37398 4.45102,-13.23211 10.07203,-20.34328c8.90672,-11.16375 21.90305,-18.30844 36.10148,-19.84711z" fill="currentColor"/><path d="M94.02,26.48859c11.79141,-0.18398 21.79477,2.48133 31.70508,9.17414c9.37031,6.32227 16.43039,15.52031 20.11523,26.20664c0.45398,1.30547 1.30383,3.64102 1.54453,4.89539c-3.54727,0.00187 -8.4232,0.11742 -11.86219,-0.28641c-8.13469,-0.95578 -18.01594,-5.27789 -24.23953,-10.56234c-6.90328,-5.86125 -11.96672,-12.83063 -15.04617,-21.33891c-0.99961,-2.76141 -1.97508,-5.09555 -2.21695,-8.08852z" fill="currentColor"/><path d="M122.66625,71.02219c3.06703,-0.16617 7.5307,-0.03281 10.67508,-0.03539l21.32156,0.0075l14.07422,-0.00141c2.40023,0 7.00266,-0.12844 9.16406,0.35227c0.8543,1.53 0.27539,6.50672 0.46008,8.51016c0.09445,1.02305 0.30891,2.89336 -0.67406,3.36563l-56.12391,-0.01172c0.19406,-3.06586 -0.08719,-6.15609 0.04242,-9.22617c0.06,-1.42031 -0.00305,-1.91672 1.06055,-2.96086z" fill="currentColor"/><path d="M177.12,15.32602c0.76172,-0.1267 1.0875,-0.10425 1.86375,-0.07563c2.92477,1.33966 1.73555,10.69423 1.33242,13.44016c-5.50828,3.18469 -8.63344,4.37086 -13.78594,8.70141c-0.76594,0.51586 -0.98437,1.56023 -2.11148,1.48594c0.09633,-1.26867 0.85336,-3.1425 0.9457,-4.41164c0.28031,-3.84633 0.49758,-8.83219 0.14695,-12.64657c3.09469,-3.09295 7.1775,-5.99105 11.60859,-6.49366z" fill="currentColor"/><path d="M120.40594,15.24302c4.2525,-0.44093 9.76195,2.44491 12.8918,5.50826c1.95094,1.90969 0.62813,12.47653 1.42055,15.60356c0.19102,0.75398 0.40641,1.42617 0.3518,2.14125l-0.47086,0.23672c-1.3118,-2.70234 -11.78508,-8.55047 -14.84414,-9.71273c-0.12117,-0.58102 -0.22148,-1.16625 -0.3007,-1.75453c-0.33773,-2.60531 -0.58617,-10.00727 0.95156,-12.02252z" fill="currentColor"/><path d="M133.65445,68.30391c0.93445,-0.15375 2.25117,-0.315 3.12844,0.04992l0.05461,0.45305c-1.16766,0.11766 -2.42977,0.48328 -3.18305,-0.50297z"  fill="currentColor"/><path d="M151.94883,67.59258c0.80789,0.13453 1.60406,0.36586 2.3318,0.74156l-0.14039,0.33023c-0.86203,0.05719 -1.44164,0.12305 -2.31141,0.00398l-0.25031,-0.34313z"  fill="currentColor"/><path d="M149.08477,0h1.71586c6.62086,3.84914 10.34602,12.53074 11.17711,19.89874c1.66781,14.79016 -2.53781,28.07102 -11.98383,39.5622c-1.62375,-2.45063 -3.52383,-4.80469 -5.12133,-7.23234c-8.9257,-13.56328 -11.68969,-42.32081 4.21219,-52.22859z" fill="currentColor"/></g></svg></svg>
